<svg xmlns="http://www.w3.org/2000/svg" width="64" height="16" viewBox="0 0 64 16"><g fill="#fff"><path d="M8 10c2.2 0 4-1.8 4-4V4c0-2.2-1.8-4-4-4S4 1.8 4 4v2c0 2.2 1.8 4 4 4zM6 4c0-1.1.9-2 2-2s2 .9 2 2v2c0 1.1-.9 2-2 2s-2-.9-2-2V4z"/><path data-color="color-2" d="M15.9 7.1c.1-.5-.3-1-.8-1.1-.5-.1-1.1.3-1.1.8-.5 3-3 5.2-6 5.2S2.5 9.8 2.1 6.9C2 6.3 1.5 5.9.9 6c-.5.1-.9.6-.8 1.1.5 3.6 3.4 6.3 6.9 6.8V16h2v-2.1c3.5-.4 6.4-3.2 6.9-6.8z"/></g><g fill="#fff"><path d="M31 16H17c-.6 0-1-.4-1-1V1c0-.6.4-1 1-1h14c.6 0 1 .4 1 1v14c0 .6-.4 1-1 1zm-13-2h12V2H18v12z"/><path data-color="color-2" d="M22 4c.6 0 1 .4 1 1s-.4 1-1 1-1-.4-1-1 .4-1 1-1zM19 12l2-4 2 2 3-4 3 6z"/></g><path fill="#fff" d="M42 14h-9c-.6 0-1-.4-1-1V3c0-.6.4-1 1-1h9c.6 0 1 .4 1 1v1.5L46.6 3c.7-.2 1.4.3 1.4 1v8c0 .7-.7 1.2-1.4.9L43 11.5V13c0 .6-.4 1-1 1zm-8-2h7v-2c0-.7.7-1.2 1.4-.9l3.6 1.5v-5l-3.6 1.5c-.7.1-1.4-.4-1.4-1.1V4h-7v8z"/><g fill="#fff"><path d="M59 3h-1c-.6 0-1 .4-1 1s.4 1 1 1h1c1.7 0 3 1.3 3 3s-1.3 3-3 3h-1c-.6 0-1 .4-1 1s.4 1 1 1h1c2.8 0 5-2.2 5-5s-2.2-5-5-5zM54 11h-1c-1.7 0-3-1.3-3-3s1.3-3 3-3h1c.6 0 1-.4 1-1s-.4-1-1-1h-1c-2.8 0-5 2.2-5 5s2.2 5 5 5h1c.6 0 1-.4 1-1s-.4-1-1-1z"/><path data-color="color-2" d="M52 8c0 .6.4 1 1 1h6c.6 0 1-.4 1-1s-.4-1-1-1h-6c-.6 0-1 .4-1 1z"/></g></svg>